<svg xmlns="http://www.w3.org/2000/svg" width="398.8128662109375" height="341.36248779296875" viewBox="-115.93321990966797 -81.20625305175781 398.8128662109375 341.36248779296875"><title>Neo4j Graph Visualization</title><desc>Created using Neo4j (http://www.neo4j.com/)</desc><g class="layer relationships"><g class="relationship" transform="translate(186.14427398612602 -52.20625694065602) rotate(430.6511772609641)"><path class="outline" fill="#A5ABB6" stroke="none" d="M 21.40063509461097,-12.933012701892217 L 21.90063509461097,-12.06698729810778 A 87.61759377580358 87.61759377580358 0 0 1 40.775307377624955,-20.182759451725047 L 40.490728407461845,-21.141412052900733 A 88.61759377580358 88.61759377580358 0 0 0 21.40063509461097,-12.933012701892217 Z M 86.66539799451505,-22.292079728900006 L 86.42892163447057,-21.3204424863346 A 87.61759377580358 87.61759377580358 0 0 1 105.68440335214594,-14.154869567099517 L 104.31567238224777,-11.485304896213716 L 112.14150941252916,-11.40609141581809 L 107.50937797867682,-17.714289128280587 L 106.14064700877866,-15.044724457394786 A 88.61759377580358 88.61759377580358 0 0 0 86.66539799451505,-22.292079728900006"/><text text-anchor="middle" pointer-events="none" font-size="8px" fill="#000000" x="63.5142327639136" y="-21.27817122942706" font-family="sans-serif">twowheeler</text></g><g class="relationship" transform="translate(230.66946562428996 74.59125900232586) rotate(489.6296840976804)"><path class="outline" fill="#A5ABB6" stroke="none" d="M 21.40063509461097,12.933012701892217 L 21.90063509461097,12.06698729810778 A 65.33533359045006 65.33533359045006 0 0 0 30.191298490649658,16.102314934215286 L 29.81819251476237,17.03010366596255 A 66.33533359045006 66.33533359045006 0 0 1 21.40063509461097,12.933012701892217 Z M 75.65035409907793,18.381061730295805 L 75.3325437999785,17.432907410690433 A 65.33533359045006 65.33533359045006 0 0 0 83.84649882921127,13.892916105990713 L 82.50213298624014,11.210998791781995 L 90.3283668695268,11.203048691426176 L 85.63898661983946,17.468805858269004 L 84.29462077686833,14.786888544060284 A 66.33533359045006 66.33533359045006 0 0 1 75.65035409907793,18.381061730295805"/><text text-anchor="middle" pointer-events="none" font-size="8px" fill="#000000" x="52.62856876405404" y="24.29168045848182" transform="rotate(180 52.62856876405404 21.29168045848182)" font-family="sans-serif">twowheeler</text></g><g class="relationship" transform="translate(158.80104033746 161.37367960687226) rotate(504.61985639269335)"><path class="outline" fill="#A5ABB6" stroke="none" d="M 25 0.5 L 47.09343410905369 0.5 L 47.09343410905369 -0.5 L 25 -0.5 Z M 66.42937160905369 0.5 L 88.52280571810738 0.5 L 88.52280571810738 3.5 L 95.52280571810738 0 L 88.52280571810738 -3.5 L 88.52280571810738 -0.5 L 66.42937160905369 -0.5 Z"/><text text-anchor="middle" pointer-events="none" font-size="8px" fill="#000000" x="56.76140285905369" y="3" transform="rotate(180 56.76140285905369 0)" font-family="sans-serif">trek</text></g><g class="relationship" transform="translate(253.8796301837917 7.229941558538342) rotate(221.26619805173783)"><path class="outline" fill="#A5ABB6" stroke="none" d="M 24.018736134675446,-6.953439040707552 L 24.277555179777966,-5.987513214418485 A 71.73423179567244 71.73423179567244 0 0 1 31.943701958505187,-7.598829622385381 L 31.791751650779872,-8.587217756663705 A 72.73423179567244 72.73423179567244 0 0 0 24.018736134675446,-6.953439040707552 Z M 51.200060273307265,-8.950181241524191 L 51.08517187051935,-7.956802836834001 A 71.73423179567244 71.73423179567244 0 0 1 58.8062049744325,-6.633248981544981 L 58.13863815087175,-3.7084661629273294 L 65.74195935513382,-5.56305686300619 L 59.69629407251349,-10.532959406368517 L 59.02872724895274,-7.608176587750866 A 72.73423179567244 72.73423179567244 0 0 0 51.200060273307265,-8.950181241524191"/><text text-anchor="middle" pointer-events="none" font-size="8px" fill="#000000" x="41.49309195597996" y="-5.919169451103343" transform="rotate(180 41.49309195597996 -8.919169451103343)" font-family="sans-serif">trek</text></g><g class="relationship" transform="translate(253.8796301837917 7.229941558538342) rotate(221.26619805173783)"><path class="outline" fill="#A5ABB6" stroke="none" d="M 24.018736134675446,6.953439040707552 L 24.277555179777966,5.987513214418485 A 71.73423179567244 71.73423179567244 0 0 0 30.63244463095331,7.3847945244869635 L 30.462214942593,8.370198935478072 A 72.73423179567244 72.73423179567244 0 0 1 24.018736134675446,6.953439040707552 Z M 52.53678160590036,8.78302530786992 L 52.40351504334377,7.791945077361632 A 71.73423179567244 71.73423179567244 0 0 0 58.8062049744325,6.633248981544981 L 58.13863815087175,3.7084661629273294 L 65.74195935513382,5.56305686300619 L 59.69629407251349,10.532959406368517 L 59.02872724895274,7.608176587750866 A 72.73423179567244 72.73423179567244 0 0 1 52.53678160590036,8.78302530786992"/><text text-anchor="middle" pointer-events="none" font-size="8px" fill="#000000" x="41.493091955979985" y="11.919169451103343" transform="rotate(180 41.493091955979985 8.919169451103343)" font-family="sans-serif">road</text></g><g class="relationship" transform="translate(186.14427398612602 -52.20625694065602) rotate(430.6511772609641)"><path class="outline" fill="#A5ABB6" stroke="none" d="M 25 0.5 L 52.68808145995543 0.5 L 52.68808145995543 -0.5 L 25 -0.5 Z M 74.69980020995543 0.5 L 102.38788166991085 0.5 L 102.38788166991085 3.5 L 109.38788166991085 0 L 102.38788166991085 -3.5 L 102.38788166991085 -0.5 L 74.69980020995543 -0.5 Z"/><text text-anchor="middle" pointer-events="none" font-size="8px" fill="#000000" x="63.69394083495543" y="3" font-family="sans-serif">road</text></g><g class="relationship" transform="translate(186.14427398612602 -52.20625694065602) rotate(430.6511772609641)"><path class="outline" fill="#A5ABB6" stroke="none" d="M 21.40063509461097,12.933012701892217 L 21.90063509461097,12.06698729810778 A 87.61759377580358 87.61759377580358 0 0 0 53.94895550411174,23.012656378293002 L 53.81473044757236,24.00360725204861 A 88.61759377580358 88.61759377580358 0 0 1 21.40063509461097,12.933012701892217 Z M 73.21537147270303,24.487069087746136 L 73.13067114209848,23.49066261747636 A 87.61759377580358 87.61759377580358 0 0 0 105.68440335214594,14.154869567099517 L 104.31567238224777,11.485304896213716 L 112.14150941252916,11.40609141581809 L 107.50937797867682,17.714289128280587 L 106.14064700877866,15.044724457394786 A 88.61759377580358 88.61759377580358 0 0 1 73.21537147270303,24.487069087746136"/><text text-anchor="middle" pointer-events="none" font-size="8px" fill="#000000" x="63.5142327639136" y="27.27817122942706" font-family="sans-serif">trek</text></g><g class="relationship" transform="translate(230.66946562428996 74.59125900232586) rotate(489.6296840976804)"><path class="outline" fill="#A5ABB6" stroke="none" d="M 25 0.5 L 41.832979535633086 0.5 L 41.832979535633086 -0.5 L 25 -0.5 Z M 63.844698285633086 0.5 L 80.67767782126617 0.5 L 80.67767782126617 3.5 L 87.67767782126617 0 L 80.67767782126617 -3.5 L 80.67767782126617 -0.5 L 63.844698285633086 -0.5 Z"/><text text-anchor="middle" pointer-events="none" font-size="8px" fill="#000000" x="52.838838910633086" y="3" transform="rotate(180 52.838838910633086 0)" font-family="sans-serif">road</text></g><g class="relationship" transform="translate(230.66946562428996 74.59125900232586) rotate(489.6296840976804)"><path class="outline" fill="#A5ABB6" stroke="none" d="M 21.40063509461097,-12.933012701892217 L 21.90063509461097,-12.06698729810778 A 65.33533359045006 65.33533359045006 0 0 1 43.10807417021532,-19.807311964240156 L 42.93266789171588,-20.791808098038047 A 66.33533359045006 66.33533359045006 0 0 0 21.40063509461097,-12.933012701892217 Z M 62.33707885944758,-21.363776440230865 L 62.219965150220226,-20.37065792811309 A 65.33533359045006 65.33533359045006 0 0 1 83.84649882921127,-13.892916105990713 L 82.50213298624014,-11.210998791781995 L 90.3283668695268,-11.203048691426176 L 85.63898661983946,-17.468805858269004 L 84.29462077686833,-14.786888544060284 A 66.33533359045006 66.33533359045006 0 0 0 62.33707885944758,-21.363776440230865"/><text text-anchor="middle" pointer-events="none" font-size="8px" fill="#000000" x="52.628568764054016" y="-18.29168045848182" transform="rotate(180 52.628568764054016 -21.29168045848182)" font-family="sans-serif">trek</text></g><g class="relationship" transform="translate(253.8796301837917 7.229941558538342) rotate(526.2452655636702)"><path class="outline" fill="#A5ABB6" stroke="none" d="M 21.40063509461097,12.933012701892217 L 21.90063509461097,12.06698729810778 A 82.04181779889092 82.04181779889092 0 0 0 30.985725534366964,16.58760505702115 L 30.596462847160616,17.508731845443293 A 83.04181779889092 83.04181779889092 0 0 1 21.40063509461097,12.933012701892217 Z M 91.23960313215404,19.080963903414116 L 90.89859350726026,18.14090409907729 A 82.04181779889092 82.04181779889092 0 0 0 100.20572428372668,14.097122461735843 L 98.84236418432963,11.424810870739751 L 106.66834467928373,11.36133416164207 L 102.02353774958942,17.660204583063965 L 100.66017765019237,14.987892992067874 A 83.04181779889092 83.04181779889092 0 0 1 91.23960313215404,19.080963903414116"/><text text-anchor="middle" pointer-events="none" font-size="8px" fill="#000000" x="60.78228638041278" y="26.530780207633" transform="rotate(180 60.78228638041278 23.530780207633)" font-family="sans-serif">PublicTransport</text></g><g class="relationship" transform="translate(128.6396400192597 37.88694082875662) rotate(436.27434801925403)"><path class="outline" fill="#A5ABB6" stroke="none" d="M 25 0.5 L 50.39043888268323 0.5 L 50.39043888268323 -0.5 L 25 -0.5 Z M 69.72637638268323 0.5 L 95.11681526536645 0.5 L 95.11681526536645 3.5 L 102.11681526536645 0 L 95.11681526536645 -3.5 L 95.11681526536645 -0.5 L 69.72637638268323 -0.5 Z"/><text text-anchor="middle" pointer-events="none" font-size="8px" fill="#000000" x="60.05840763268323" y="3" font-family="sans-serif">trek</text></g><g class="relationship" transform="translate(253.8796301837917 7.229941558538342) rotate(526.2452655636702)"><path class="outline" fill="#A5ABB6" stroke="none" d="M 25 0.5 L 49.962944593792216 0.5 L 49.962944593792216 -0.5 L 25 -0.5 Z M 71.97466334379222 0.5 L 96.93760793758443 0.5 L 96.93760793758443 3.5 L 103.93760793758443 0 L 96.93760793758443 -3.5 L 96.93760793758443 -0.5 L 71.97466334379222 -0.5 Z"/><text text-anchor="middle" pointer-events="none" font-size="8px" fill="#000000" x="60.968803968792216" y="3" transform="rotate(180 60.968803968792216 0)" font-family="sans-serif">road</text></g><g class="relationship" transform="translate(253.8796301837917 7.229941558538342) rotate(526.2452655636702)"><path class="outline" fill="#A5ABB6" stroke="none" d="M 21.40063509461097,-12.933012701892217 L 21.90063509461097,-12.06698729810778 A 82.04181779889092 82.04181779889092 0 0 1 51.225586344949065,-22.22053390935217 L 51.08302541732825,-23.210319937701684 A 83.04181779889092 83.04181779889092 0 0 0 21.40063509461097,-12.933012701892217 Z M 70.48512259676826,-23.713338070239416 L 70.39404103324772,-22.71749463435873 A 82.04181779889092 82.04181779889092 0 0 1 100.20572428372668,-14.097122461735843 L 98.84236418432963,-11.424810870739751 L 106.66834467928373,-11.36133416164207 L 102.02353774958942,-17.660204583063965 L 100.66017765019237,-14.987892992067874 A 83.04181779889092 83.04181779889092 0 0 0 70.48512259676826,-23.713338070239416"/><text text-anchor="middle" pointer-events="none" font-size="8px" fill="#000000" x="60.78228638041276" y="-20.530780207633" transform="rotate(180 60.78228638041276 -23.530780207633)" font-family="sans-serif">trek</text></g><g class="relationship" transform="translate(128.6396400192597 37.88694082875662) rotate(189.66826006990914)"><path class="outline" fill="#A5ABB6" stroke="none" d="M 24.018736134675446,-6.953439040707552 L 24.277555179777966,-5.987513214418485 A 134.73755326718017 134.73755326718017 0 0 1 47.63019204254773,-10.08520259305078 L 47.54469243435426,-11.081540797175649 A 135.73755326718017 135.73755326718017 0 0 0 24.018736134675446,-6.953439040707552 Z M 66.93366048053275,-11.35524073842069 L 66.87631849788059,-10.356886143587019 A 134.73755326718017 134.73755326718017 0 0 1 90.33531544059848,-6.9200025072527245 L 89.6409630207593,-4.001462681061641 L 97.26096710501753,-5.7862701653264885 L 91.26111866705071,-10.811388942174169 L 90.56676624721153,-7.892849115983085 A 135.73755326718017 135.73755326718017 0 0 0 66.93366048053275,-11.35524073842069"/><text text-anchor="middle" pointer-events="none" font-size="8px" fill="#000000" x="57.241340186573105" y="-8.0651116886595" transform="rotate(180 57.241340186573105 -11.0651116886595)" font-family="sans-serif">trek</text></g><g class="relationship" transform="translate(8.784380633895651 17.468035423670997) rotate(450.87923671703345)"><path class="outline" fill="#A5ABB6" stroke="none" d="M 24.018736134675446,-6.953439040707552 L 24.277555179777966,-5.987513214418485 A 115.12999817856465 115.12999817856465 0 0 1 42.70746598953971,-9.347864164148547 L 42.608726081945534,-10.342977439433483 A 116.12999817856465 116.12999817856465 0 0 0 24.018736134675446,-6.953439040707552 Z M 62.00338899661228,-10.639541267265358 L 61.93512069600133,-9.641874269148403 A 115.12999817856465 115.12999817856465 0 0 1 80.45915739378364,-6.846586201642893 L 79.77166239403942,-3.9264234278703936 L 87.3874530325435,-5.729124997868473 L 81.37581739344259,-10.740136566672893 L 80.68832239369837,-7.819973792900393 A 116.12999817856465 116.12999817856465 0 0 0 62.00338899661228,-10.639541267265358"/><text text-anchor="middle" pointer-events="none" font-size="8px" fill="#000000" x="52.30749951456128" y="-7.396957142802179" transform="rotate(180 52.30749951456128 -10.39695714280218)" font-family="sans-serif">trek</text></g><g class="relationship" transform="translate(7.070007330486421 129.17702395693152) rotate(422.3330080105548)"><path class="outline" fill="#A5ABB6" stroke="none" d="M 24.018736134675446,6.953439040707552 L 24.277555179777966,5.987513214418485 A 121.94693647254584 121.94693647254584 0 0 0 44.41582401309228,9.606481901637551 L 44.32214457227862,10.60208431343095 A 122.94693647254584 122.94693647254584 0 0 1 24.018736134675446,6.953439040707552 Z M 63.71473081233056,10.890291160801539 L 63.650678903373,9.892344592613199 A 121.94693647254584 121.94693647254584 0 0 0 83.88759813273825,6.873419938691098 L 83.1975967080217,3.9538483889788574 L 90.81493198618624,5.750011872637867 L 84.80760003236031,10.766182004974088 L 84.11759860764377,7.846610455261846 A 122.94693647254584 122.94693647254584 0 0 1 63.71473081233056,10.890291160801539"/><text text-anchor="middle" pointer-events="none" font-size="8px" fill="#000000" x="54.020175822299464" y="13.62923411117157" font-family="sans-serif">trek</text></g><g class="relationship" transform="translate(128.6396400192597 37.88694082875662) rotate(189.66826006990914)"><path class="outline" fill="#A5ABB6" stroke="none" d="M 24.018736134675446,6.953439040707552 L 24.277555179777966,5.987513214418485 A 134.73755326718017 134.73755326718017 0 0 0 34.24583995648198,8.256970525093749 L 34.06100388446298,9.23973989095768 A 135.73755326718017 135.73755326718017 0 0 1 24.018736134675446,6.953439040707552 Z M 80.46396469974366,9.894776694282655 L 80.3069428282653,8.907181568799814 A 134.73755326718017 134.73755326718017 0 0 0 90.33531544059848,6.9200025072527245 L 89.6409630207593,4.001462681061641 L 97.26096710501753,5.7862701653264885 L 91.26111866705071,10.811388942174169 L 90.56676624721153,7.892849115983085 A 135.73755326718017 135.73755326718017 0 0 1 80.46396469974366,9.894776694282655"/><text text-anchor="middle" pointer-events="none" font-size="8px" fill="#000000" x="57.24134018657313" y="14.0651116886595" transform="rotate(180 57.24134018657313 11.0651116886595)" font-family="sans-serif">twowheeler</text></g><g class="relationship" transform="translate(8.784380633895651 17.468035423670997) rotate(450.87923671703345)"><path class="outline" fill="#A5ABB6" stroke="none" d="M 24.018736134675446,6.953439040707552 L 24.277555179777966,5.987513214418485 A 115.12999817856465 115.12999817856465 0 0 0 29.376600272215327,7.2299574681274095 L 29.162070684014637,8.20667495839082 A 116.12999817856465 116.12999817856465 0 0 1 24.018736134675446,6.953439040707552 Z M 75.5090749505378,8.915367089535124 L 75.32450865487169,7.932547023345947 A 115.12999817856465 115.12999817856465 0 0 0 80.45915739378364,6.846586201642893 L 79.77166239403942,3.9264234278703936 L 87.3874530325435,5.729124997868473 L 81.37581739344259,10.740136566672893 L 80.68832239369837,7.819973792900393 A 116.12999817856465 116.12999817856465 0 0 1 75.5090749505378,8.915367089535124"/><text text-anchor="middle" pointer-events="none" font-size="8px" fill="#000000" x="52.30749951456127" y="13.39695714280218" transform="rotate(180 52.30749951456127 10.39695714280218)" font-family="sans-serif">twowheeler</text></g><g class="relationship" transform="translate(7.070007330486421 129.17702395693152) rotate(422.3330080105548)"><path class="outline" fill="#A5ABB6" stroke="none" d="M 24.018736134675446,-6.953439040707552 L 24.277555179777966,-5.987513214418485 A 121.94693647254584 121.94693647254584 0 0 1 31.063683490229874,-7.599344166448603 L 30.860512651689554,-8.578487470754382 A 122.94693647254584 122.94693647254584 0 0 0 24.018736134675446,-6.953439040707552 Z M 77.23055240583997,-9.26762520641087 L 77.05656834256209,-8.282876738158535 A 121.94693647254584 121.94693647254584 0 0 1 83.88759813273825,-6.873419938691098 L 83.1975967080217,-3.9538483889788574 L 90.81493198618624,-5.750011872637867 L 84.80760003236031,-10.766182004974088 L 84.11759860764377,-7.846610455261846 A 122.94693647254584 122.94693647254584 0 0 0 77.23055240583997,-9.26762520641087"/><text text-anchor="middle" pointer-events="none" font-size="8px" fill="#000000" x="54.02017582229948" y="-7.62923411117157" font-family="sans-serif">twowheeler</text></g><g class="relationship" transform="translate(128.6396400192597 37.88694082875662) rotate(302.5492522739421)"><path class="outline" fill="#A5ABB6" stroke="none" d="M 25 0.5 L 40.2725758111798 0.5 L 40.2725758111798 -0.5 L 25 -0.5 Z M 59.6085133111798 0.5 L 74.8810891223596 0.5 L 74.8810891223596 3.5 L 81.8810891223596 0 L 74.8810891223596 -3.5 L 74.8810891223596 -0.5 L 59.6085133111798 -0.5 Z"/><text text-anchor="middle" pointer-events="none" font-size="8px" fill="#000000" x="49.9405445611798" y="3" font-family="sans-serif">trek</text></g><g class="relationship" transform="translate(8.784380633895651 17.468035423670997) rotate(505.35904488797985)"><path class="outline" fill="#A5ABB6" stroke="none" d="M 24.018736134675446,-6.953439040707552 L 24.277555179777966,-5.987513214418485 A 124.32767590513177 124.32767590513177 0 0 1 45.01327180022064,-9.696186691791254 L 44.92123554478649,-10.691942348408716 A 125.32767590513177 125.32767590513177 0 0 0 24.018736134675446,-6.953439040707552 Z M 64.3131205868525,-10.977337137246067 L 64.2504273709068,-9.979304291757302 A 124.32767590513177 124.32767590513177 0 0 1 85.08630250239936,-6.8824493984953214 L 84.39545768229142,-3.9630773025592743 L 92.01331152960147,-5.757040167566144 L 86.00742892920995,-10.774945526410052 L 85.31658410910201,-7.855573430474005 A 125.32767590513177 125.32767590513177 0 0 0 64.3131205868525,-10.977337137246067"/><text text-anchor="middle" pointer-events="none" font-size="8px" fill="#000000" x="54.61900712500466" y="-7.710359598826685" transform="rotate(180 54.61900712500466 -10.710359598826685)" font-family="sans-serif">trek</text></g><g class="relationship" transform="translate(-86.93322009362387 83.60021468376719) rotate(385.8661035726408)"><path class="outline" fill="#A5ABB6" stroke="none" d="M 21.40063509461097,12.933012701892217 L 21.90063509461097,12.06698729810778 A 56.84881360596845 56.84881360596845 0 0 0 26.277565659126147,14.346668076124224 L 25.854558128922484,15.25279424250008 A 57.84881360596845 57.84881360596845 0 0 1 21.40063509461097,12.933012701892217 Z M 71.43015822006632,16.695953073150513 L 71.0653259096541,15.764879829372518 A 56.84881360596845 56.84881360596845 0 0 0 75.57771623628453,13.766680851198272 L 74.2450934740724,11.078909176811827 L 82.07128727022159,11.10518968510105 L 77.35454658590069,17.350376417046867 L 76.02192382368857,14.662604742660422 A 57.84881360596845 57.84881360596845 0 0 1 71.43015822006632,16.695953073150513"/><text text-anchor="middle" pointer-events="none" font-size="8px" fill="#000000" x="48.509992066960976" y="23.154554421328747" font-family="sans-serif">twowheeler</text></g><g class="relationship" transform="translate(8.784380633895651 17.468035423670997) rotate(505.35904488797985)"><path class="outline" fill="#A5ABB6" stroke="none" d="M 24.018736134675446,6.953439040707552 L 24.277555179777966,5.987513214418485 A 124.32767590513177 124.32767590513177 0 0 0 31.654444797316074,7.725004401931841 L 31.454960003930502,8.704905324070367 A 125.32767590513177 125.32767590513177 0 0 1 24.018736134675446,6.953439040707552 Z M 77.83203857423925,9.387447352179251 L 77.6614767818618,8.402100370156688 A 124.32767590513177 124.32767590513177 0 0 0 85.08630250239936,6.8824493984953214 L 84.39545768229142,3.9630773025592743 L 92.01331152960147,5.757040167566144 L 86.00742892920995,10.774945526410052 L 85.31658410910201,7.855573430474005 A 125.32767590513177 125.32767590513177 0 0 1 77.83203857423925,9.387447352179251"/><text text-anchor="middle" pointer-events="none" font-size="8px" fill="#000000" x="54.61900712500467" y="13.710359598826685" transform="rotate(180 54.61900712500467 10.710359598826685)" font-family="sans-serif">twowheeler</text></g><g class="relationship" transform="translate(-86.93322009362387 83.60021468376719) rotate(385.8661035726408)"><path class="outline" fill="#A5ABB6" stroke="none" d="M 25 0.5 L 37.72883290338765 0.5 L 37.72883290338765 -0.5 L 25 -0.5 Z M 59.74055165338765 0.5 L 72.4693845567753 0.5 L 72.4693845567753 3.5 L 79.4693845567753 0 L 72.4693845567753 -3.5 L 72.4693845567753 -0.5 L 59.74055165338765 -0.5 Z"/><text text-anchor="middle" pointer-events="none" font-size="8px" fill="#000000" x="48.73469227838765" y="3" font-family="sans-serif">road</text></g><g class="relationship" transform="translate(-86.93322009362387 83.60021468376719) rotate(385.8661035726408)"><path class="outline" fill="#A5ABB6" stroke="none" d="M 21.40063509461097,-12.933012701892217 L 21.90063509461097,-12.06698729810778 A 56.84881360596845 56.84881360596845 0 0 1 39.01775358206306,-18.547420914151267 L 38.81885253913356,-19.527440493099334 A 57.84881360596845 57.84881360596845 0 0 0 21.40063509461097,-12.933012701892217 Z M 58.22139233627827,-20.141825089008087 L 58.08489255440775,-19.151184988088836 A 56.84881360596845 56.84881360596845 0 0 1 75.57771623628453,-13.766680851198272 L 74.2450934740724,-11.078909176811827 L 82.07128727022159,-11.10518968510105 L 77.35454658590069,-17.350376417046867 L 76.02192382368857,-14.662604742660422 A 57.84881360596845 57.84881360596845 0 0 0 58.22139233627827,-20.141825089008087"/><text text-anchor="middle" pointer-events="none" font-size="8px" fill="#000000" x="48.50999206696095" y="-17.15455442132874" font-family="sans-serif">trek</text></g><g class="relationship" transform="translate(-86.93322009362387 83.60021468376719) rotate(436.19061603694945)"><path class="outline" fill="#A5ABB6" stroke="none" d="M 25 0.5 L 48.67270634661051 0.5 L 48.67270634661051 -0.5 L 25 -0.5 Z M 68.00864384661051 0.5 L 91.68135019322102 0.5 L 91.68135019322102 3.5 L 98.68135019322102 0 L 91.68135019322102 -3.5 L 91.68135019322102 -0.5 L 68.00864384661051 -0.5 Z"/><text text-anchor="middle" pointer-events="none" font-size="8px" fill="#000000" x="58.34067509661051" y="3" font-family="sans-serif">trek</text></g><g class="relationship" transform="translate(-57.41140845128516 203.7065801394434) rotate(373.1011832754812)"><path class="outline" fill="#A5ABB6" stroke="none" d="M 25 0.5 L 47.38143953066473 0.5 L 47.38143953066473 -0.5 L 25 -0.5 Z M 66.71737703066472 0.5 L 89.09881656132946 0.5 L 89.09881656132946 3.5 L 96.09881656132946 0 L 89.09881656132946 -3.5 L 89.09881656132946 -0.5 L 66.71737703066472 -0.5 Z"/><text text-anchor="middle" pointer-events="none" font-size="8px" fill="#000000" x="57.04940828066473" y="3" font-family="sans-serif">trek</text></g></g><g class="layer nodes"><g class="node" transform="translate(253.8796301837917,7.229941558538342)"><circle class="outline" cx="0" cy="0" r="25" fill="#FF756E" stroke="#E06760" stroke-width="2px"/><text text-anchor="middle" pointer-events="none" y="5" font-size="10px" fill="#FFFFFF" font-family="sans-serif"> Darjeeling</text></g><g class="node" transform="translate(158.80104033746,161.37367960687226)"><circle class="outline" cx="0" cy="0" r="25" fill="#FB95AF" stroke="#E0849B" stroke-width="2px"/><text text-anchor="middle" pointer-events="none" y="5" font-size="10px" fill="#FFFFFF" font-family="sans-serif"> BhikeBh…</text></g><g class="node" transform="translate(60.53536167909409,231.15622109093852)"><circle class="outline" cx="0" cy="0" r="25" fill="#DE9BF9" stroke="#BF85D6" stroke-width="2px"/><text text-anchor="middle" pointer-events="none" y="5" font-size="10px" fill="#FFFFFF" font-family="sans-serif"> Sandak…</text></g><g class="node" transform="translate(186.14427398612602,-52.20625694065602)"><circle class="outline" cx="0" cy="0" r="25" fill="#FB95AF" stroke="#E0849B" stroke-width="2px"/><text text-anchor="middle" pointer-events="none" y="5" font-size="10px" fill="#FFFFFF" font-family="sans-serif"> Tumbling</text></g><g class="node" transform="translate(230.66946562428996,74.59125900232586)"><circle class="outline" cx="0" cy="0" r="25" fill="#FB95AF" stroke="#E0849B" stroke-width="2px"/><text text-anchor="middle" pointer-events="none" y="5" font-size="10px" fill="#FFFFFF" font-family="sans-serif"> Gairibus</text></g><g class="node" transform="translate(128.6396400192597,37.88694082875662)"><circle class="outline" cx="0" cy="0" r="25" fill="#FF756E" stroke="#E06760" stroke-width="2px"/><text text-anchor="middle" pointer-events="none" y="5" font-size="10px" fill="#FFFFFF" font-family="sans-serif"> Rimbik</text></g><g class="node" transform="translate(8.784380633895651,17.468035423670997)"><circle class="outline" cx="0" cy="0" r="25" fill="#FB95AF" stroke="#E0849B" stroke-width="2px"/><text text-anchor="middle" pointer-events="none" y="5" font-size="10px" fill="#FFFFFF" font-family="sans-serif"> Sirikhola</text></g><g class="node" transform="translate(7.070007330486421,129.17702395693152)"><circle class="outline" cx="0" cy="0" r="25" fill="#FB95AF" stroke="#E0849B" stroke-width="2px"/><text text-anchor="middle" pointer-events="none" y="5" font-size="10px" fill="#FFFFFF" font-family="sans-serif"> Gurdum</text></g><g class="node" transform="translate(-86.93322009362387,83.60021468376719)"><circle class="outline" cx="0" cy="0" r="25" fill="#FB95AF" stroke="#E0849B" stroke-width="2px"/><text text-anchor="middle" pointer-events="none" y="5" font-size="10px" fill="#FFFFFF" font-family="sans-serif"> Rammam</text></g><g class="node" transform="translate(-57.41140845128516,203.7065801394434)"><circle class="outline" cx="0" cy="0" r="25" fill="#DE9BF9" stroke="#BF85D6" stroke-width="2px"/><text text-anchor="middle" pointer-events="none" y="5" font-size="10px" fill="#FFFFFF" font-family="sans-serif"> Sabargr…</text></g></g></svg>