<svg xmlns="http://www.w3.org/2000/svg" width="213.3732452392578" height="225.8942413330078" viewBox="-6.702182769775391 -13.91913890838623 213.3732452392578 225.8942413330078"><title>Neo4j Graph Visualization</title><desc>Created using Neo4j (http://www.neo4j.com/)</desc><g class="layer relationships"><g class="relationship" transform="translate(177.67106078357992 182.97509012293065) rotate(196.5558003239792)"><path class="outline" fill="#A5ABB6" stroke="none" d="M 21.40063509461097,12.933012701892217 L 21.90063509461097,12.06698729810778 A 57.98218040938111 57.98218040938111 0 0 0 39.562342876052476,18.717507459132996 L 39.36694866453338,19.698232243210988 A 58.98218040938111 58.98218040938111 0 0 1 21.40063509461097,12.933012701892217 Z M 58.76996187618832,20.30661145903398 L 58.63639210100867,19.31557204752783 A 57.98218040938111 57.98218040938111 0 0 0 76.68004948055659,13.784589445971372 L 75.3457607042889,11.09764444066775 L 83.17196928897633,11.119073135564044 L 78.45910118224684,17.3671827863762 L 77.12481240597916,14.680237781072579 A 58.98218040938111 58.98218040938111 0 0 1 58.76996187618832,20.30661145903398"/><text text-anchor="middle" pointer-events="none" font-size="8px" fill="#000000" x="49.058924073139664" y="23.30639993057639" transform="rotate(180 49.058924073139664 20.30639993057639)" font-family="sans-serif">trek</text></g><g class="relationship" transform="translate(76.48424978246194 152.89496780811203) rotate(293.66706712719053)"><path class="outline" fill="#A5ABB6" stroke="none" d="M 25 0.5 L 41.9122902824157 0.5 L 41.9122902824157 -0.5 L 25 -0.5 Z M 61.2482277824157 0.5 L 78.1605180648314 0.5 L 78.1605180648314 3.5 L 85.1605180648314 0 L 78.1605180648314 -3.5 L 78.1605180648314 -0.5 L 61.2482277824157 -0.5 Z"/><text text-anchor="middle" pointer-events="none" font-size="8px" fill="#000000" x="51.5802590324157" y="3" font-family="sans-serif">trek</text></g><g class="relationship" transform="translate(120.70503908887648 51.99966795014174) rotate(200.5642622980593)"><path class="outline" fill="#A5ABB6" stroke="none" d="M 25 0.5 L 39.38433720697957 0.5 L 39.38433720697957 -0.5 L 25 -0.5 Z M 58.72027470697957 0.5 L 73.10461191395915 0.5 L 73.10461191395915 3.5 L 80.10461191395915 0 L 73.10461191395915 -3.5 L 73.10461191395915 -0.5 L 58.72027470697957 -0.5 Z"/><text text-anchor="middle" pointer-events="none" font-size="8px" fill="#000000" x="49.05230595697957" y="3" transform="rotate(180 49.05230595697957 0)" font-family="sans-serif">trek</text></g><g class="relationship" transform="translate(177.67106078357992 182.97509012293065) rotate(196.5558003239792)"><path class="outline" fill="#A5ABB6" stroke="none" d="M 25 0.5 L 38.27572945825325 0.5 L 38.27572945825325 -0.5 L 25 -0.5 Z M 60.28744820825325 0.5 L 73.5631776665065 0.5 L 73.5631776665065 3.5 L 80.5631776665065 0 L 73.5631776665065 -3.5 L 73.5631776665065 -0.5 L 60.28744820825325 -0.5 Z"/><text text-anchor="middle" pointer-events="none" font-size="8px" fill="#000000" x="49.28158883325325" y="3" transform="rotate(180 49.28158883325325 0)" font-family="sans-serif">road</text></g><g class="relationship" transform="translate(177.67106078357992 182.97509012293065) rotate(196.5558003239792)"><path class="outline" fill="#A5ABB6" stroke="none" d="M 21.40063509461097,-12.933012701892217 L 21.90063509461097,-12.06698729810778 A 57.98218040938111 57.98218040938111 0 0 1 22.605275367785254,-12.467272085544927 L 22.117428071740143,-13.340201072199328 A 58.98218040938111 58.98218040938111 0 0 0 21.40063509461097,-12.933012701892217 Z M 76.38391783562554,-15.04172052837265 L 75.95171623915371,-14.13994351602026 A 57.98218040938111 57.98218040938111 0 0 1 76.68004948055659,-13.784589445971372 L 75.3457607042889,-11.09764444066775 L 83.17196928897633,-11.119073135564044 L 78.45910118224684,-17.3671827863762 L 77.12481240597916,-14.680237781072579 A 58.98218040938111 58.98218040938111 0 0 0 76.38391783562554,-15.04172052837265"/><text text-anchor="middle" pointer-events="none" font-size="8px" fill="#000000" x="49.058924073139664" y="-17.30639993057639" transform="rotate(180 49.058924073139664 -20.30639993057639)" font-family="sans-serif">PublicTrans…</text></g></g><g class="layer nodes"><g class="node" transform="translate(76.48424978246194,152.89496780811203)"><circle class="outline" cx="0" cy="0" r="25" fill="#FF756E" stroke="#E06760" stroke-width="2px"/><text text-anchor="middle" pointer-events="none" y="5" font-size="10px" fill="#FFFFFF" font-family="sans-serif"> Rimbik</text></g><g class="node" transform="translate(177.67106078357992,182.97509012293065)"><circle class="outline" cx="0" cy="0" r="25" fill="#FF756E" stroke="#E06760" stroke-width="2px"/><text text-anchor="middle" pointer-events="none" y="5" font-size="10px" fill="#FFFFFF" font-family="sans-serif"> Darjeeling</text></g><g class="node" transform="translate(120.70503908887648,51.99966795014174)"><circle class="outline" cx="0" cy="0" r="25" fill="#FB95AF" stroke="#E0849B" stroke-width="2px"/><text text-anchor="middle" pointer-events="none" y="5" font-size="10px" fill="#FFFFFF" font-family="sans-serif"> BhikeBh…</text></g><g class="node" transform="translate(22.297817958113363,15.080861429547737)"><circle class="outline" cx="0" cy="0" r="25" fill="#DE9BF9" stroke="#BF85D6" stroke-width="2px"/><text text-anchor="middle" pointer-events="none" y="5" font-size="10px" fill="#FFFFFF" font-family="sans-serif"> Sandak…</text></g></g></svg>