<svg xmlns="http://www.w3.org/2000/svg" width="783.4158935546875" height="143.82568359375" viewBox="-76.06594848632812 -8.086236953735352 783.4158935546875 143.82568359375"><title>Neo4j Graph Visualization</title><desc>Created using Neo4j (http://www.neo4j.com/)</desc><g class="layer relationships"><g class="relationship" transform="translate(678.3499677205698 60.797584054265215) rotate(181.617650532134)"><path class="outline" fill="#A5ABB6" stroke="none" d="M 21.40063509461097,12.933012701892217 L 21.90063509461097,12.06698729810778 A 293.3355320152684 293.3355320152684 0 0 0 155.93965123372325,51.094522726304945 L 155.8965990000516,52.09359554906405 A 294.3355320152684 294.3355320152684 0 0 1 21.40063509461097,12.933012701892217 Z M 175.26094454824118,52.29040005021841 L 175.2382067448908,51.290658587489816 A 293.3355320152684 293.3355320152684 0 0 0 310.042746099521,14.995444873746658 L 308.5958602344641,12.36741875258678 L 316.4159546930702,12.057382208807283 L 311.9719272529302,18.49947970195983 L 310.5250413878733,15.871453580799953 A 294.3355320152684 294.3355320152684 0 0 1 175.26094454824118,52.29040005021841"/><text text-anchor="middle" pointer-events="none" font-size="8px" fill="#000000" x="165.58223413833147" y="54.851322580829844" transform="rotate(180 165.58223413833147 51.851322580829844)" font-family="sans-serif">trek</text></g><g class="relationship" transform="translate(340.1686258244864 51.24706155297258) rotate(182.79343216828886)"><path class="outline" fill="#A5ABB6" stroke="none" d="M 25 0.5 L 93.38888575775694 0.5 L 93.38888575775694 -0.5 L 25 -0.5 Z M 112.72482325775694 0.5 L 181.11370901551388 0.5 L 181.11370901551388 3.5 L 188.11370901551388 0 L 181.11370901551388 -3.5 L 181.11370901551388 -0.5 L 112.72482325775694 -0.5 Z"/><text text-anchor="middle" pointer-events="none" font-size="8px" fill="#000000" x="103.05685450775694" y="3" transform="rotate(180 103.05685450775694 0)" font-family="sans-serif">trek</text></g><g class="relationship" transform="translate(127.30815334170327 40.86090611626514) rotate(519.3034341626142)"><path class="outline" fill="#A5ABB6" stroke="none" d="M 25 0.5 L 80.03384079601756 0.5 L 80.03384079601756 -0.5 L 25 -0.5 Z M 99.36977829601756 0.5 L 154.40361909203511 0.5 L 154.40361909203511 3.5 L 161.40361909203511 0 L 154.40361909203511 -3.5 L 154.40361909203511 -0.5 L 99.36977829601756 -0.5 Z"/><text text-anchor="middle" pointer-events="none" font-size="8px" fill="#000000" x="89.70180954601756" y="3" transform="rotate(180 89.70180954601756 0)" font-family="sans-serif">trek</text></g><g class="relationship" transform="translate(678.3499677205698 60.797584054265215) rotate(181.617650532134)"><path class="outline" fill="#A5ABB6" stroke="none" d="M 25 0.5 L 154.65222680970132 0.5 L 154.65222680970132 -0.5 L 25 -0.5 Z M 176.66394555970132 0.5 L 306.31617236940264 0.5 L 306.31617236940264 3.5 L 313.31617236940264 0 L 306.31617236940264 -3.5 L 306.31617236940264 -0.5 L 176.66394555970132 -0.5 Z"/><text text-anchor="middle" pointer-events="none" font-size="8px" fill="#000000" x="165.65808618470132" y="3" transform="rotate(180 165.65808618470132 0)" font-family="sans-serif">road</text></g><g class="relationship" transform="translate(678.3499677205698 60.797584054265215) rotate(181.617650532134)"><path class="outline" fill="#A5ABB6" stroke="none" d="M 21.40063509461097,-12.933012701892217 L 21.90063509461097,-12.06698729810778 A 293.3355320152684 293.3355320152684 0 0 1 134.85119201894832,-49.42225519746438 L 134.7362478495473,-50.41562715092425 A 294.3355320152684 294.3355320152684 0 0 0 21.40063509461097,-12.933012701892217 Z M 196.45102845337652,-51.042849309316466 L 196.35629769776497,-50.04734637916442 A 293.3355320152684 293.3355320152684 0 0 1 310.042746099521,-14.995444873746658 L 308.5958602344641,-12.36741875258678 L 316.4159546930702,-12.057382208807283 L 311.9719272529302,-18.49947970195983 L 310.5250413878733,-15.871453580799953 A 294.3355320152684 294.3355320152684 0 0 0 196.45102845337652,-51.042849309316466"/><text text-anchor="middle" pointer-events="none" font-size="8px" fill="#000000" x="165.58223413833144" y="-48.851322580829844" transform="rotate(180 165.58223413833144 -51.851322580829844)" font-family="sans-serif">PublicTransport</text></g></g><g class="layer nodes"><g class="node" transform="translate(340.1686258244864,51.24706155297258)"><circle class="outline" cx="0" cy="0" r="25" fill="#FF756E" stroke="#E06760" stroke-width="2px"/><text text-anchor="middle" pointer-events="none" y="5" font-size="10px" fill="#FFFFFF" font-family="sans-serif"> Rimbik</text></g><g class="node" transform="translate(678.3499677205698,60.797584054265215)"><circle class="outline" cx="0" cy="0" r="25" fill="#FF756E" stroke="#E06760" stroke-width="2px"/><text text-anchor="middle" pointer-events="none" y="5" font-size="10px" fill="#FFFFFF" font-family="sans-serif"> Darjeeling</text></g><g class="node" transform="translate(127.30815334170327,40.86090611626514)"><circle class="outline" cx="0" cy="0" r="25" fill="#FB95AF" stroke="#E0849B" stroke-width="2px"/><text text-anchor="middle" pointer-events="none" y="5" font-size="10px" fill="#FFFFFF" font-family="sans-serif"> BhikeBh…</text></g><g class="node" transform="translate(-47.06594836751128,106.73944483497849)"><circle class="outline" cx="0" cy="0" r="25" fill="#DE9BF9" stroke="#BF85D6" stroke-width="2px"/><text text-anchor="middle" pointer-events="none" y="5" font-size="10px" fill="#FFFFFF" font-family="sans-serif"> Sandak…</text></g></g></svg>